<svg width="36" height="37" viewBox="0 0 36 37" fill="none" xmlns="http://www.w3.org/2000/svg">
<path d="M22.5 20.0417H4.5C4.10218 20.0417 3.72064 19.8793 3.43934 19.5901C3.15804 19.301 3 18.9089 3 18.5C3 18.0911 3.15804 17.699 3.43934 17.4099C3.72064 17.1208 4.10218 16.9583 4.5 16.9583H22.5C22.8978 16.9583 23.2794 17.1208 23.5607 17.4099C23.842 17.699 24 18.0911 24 18.5C24 18.9089 23.842 19.301 23.5607 19.5901C23.2794 19.8793 22.8978 20.0417 22.5 20.0417Z" fill="black"/>
<path d="M31.5 20.0417H28.5C28.1022 20.0417 27.7206 19.8793 27.4393 19.5901C27.158 19.301 27 18.9089 27 18.5C27 18.0911 27.158 17.699 27.4393 17.4099C27.7206 17.1208 28.1022 16.9583 28.5 16.9583H31.5C31.8978 16.9583 32.2794 17.1208 32.5607 17.4099C32.842 17.699 33 18.0911 33 18.5C33 18.9089 32.842 19.301 32.5607 19.5901C32.2794 19.8793 31.8978 20.0417 31.5 20.0417Z" fill="black"/>
<path d="M22.5 12.3333H4.5C4.10218 12.3333 3.72064 12.1709 3.43934 11.8818C3.15804 11.5927 3 11.2005 3 10.7917C3 10.3828 3.15804 9.99066 3.43934 9.70154C3.72064 9.41243 4.10218 9.25 4.5 9.25H22.5C22.8978 9.25 23.2794 9.41243 23.5607 9.70154C23.842 9.99066 24 10.3828 24 10.7917C24 11.2005 23.842 11.5927 23.5607 11.8818C23.2794 12.1709 22.8978 12.3333 22.5 12.3333Z" fill="black"/>
<path d="M31.5 12.3333H28.5C28.1022 12.3333 27.7206 12.1709 27.4393 11.8818C27.158 11.5927 27 11.2005 27 10.7917C27 10.3828 27.158 9.99066 27.4393 9.70154C27.7206 9.41243 28.1022 9.25 28.5 9.25H31.5C31.8978 9.25 32.2794 9.41243 32.5607 9.70154C32.842 9.99066 33 10.3828 33 10.7917C33 11.2005 32.842 11.5927 32.5607 11.8818C32.2794 12.1709 31.8978 12.3333 31.5 12.3333Z" fill="black"/>
<path d="M22.5 27.75H4.5C4.10218 27.75 3.72064 27.5876 3.43934 27.2984C3.15804 27.0093 3 26.6172 3 26.2083C3 25.7994 3.15804 25.4073 3.43934 25.1182C3.72064 24.8291 4.10218 24.6667 4.5 24.6667H22.5C22.8978 24.6667 23.2794 24.8291 23.5607 25.1182C23.842 25.4073 24 25.7994 24 26.2083C24 26.6172 23.842 27.0093 23.5607 27.2984C23.2794 27.5876 22.8978 27.75 22.5 27.75Z" fill="black"/>
<path d="M31.5 27.75H28.5C28.1022 27.75 27.7206 27.5876 27.4393 27.2984C27.158 27.0093 27 26.6172 27 26.2083C27 25.7994 27.158 25.4073 27.4393 25.1182C27.7206 24.8291 28.1022 24.6667 28.5 24.6667H31.5C31.8978 24.6667 32.2794 24.8291 32.5607 25.1182C32.842 25.4073 33 25.7994 33 26.2083C33 26.6172 32.842 27.0093 32.5607 27.2984C32.2794 27.5876 31.8978 27.75 31.5 27.75Z" fill="black"/>
</svg>
