<svg width="30" height="30" viewBox="0 0 30 30" fill="none" xmlns="http://www.w3.org/2000/svg">
<path d="M17.5 12.5H16.25V11.25C16.25 10.5 15.75 10 15 10C14.25 10 13.75 10.5 13.75 11.25V12.5H12.5C11.75 12.5 11.25 13 11.25 13.75C11.25 14.5 11.75 15 12.5 15H13.75V16.25C13.75 17 14.25 17.5 15 17.5C15.75 17.5 16.25 17 16.25 16.25V15H17.5C18.25 15 18.75 14.5 18.75 13.75C18.75 13 18.25 12.5 17.5 12.5Z" fill="black"/>
<path d="M23.75 3.75H22.5H7.5H6.25C5.5 3.75 5 4.25 5 5C5 5.75 5.5 6.25 6.25 6.25V23.875C6.25 24.75 6.75 25.625 7.625 26.125C8 26.375 8.375 26.375 8.75 26.375C9.25 26.375 9.75 26.25 10.125 26L15 22.75L19.875 26C20.625 26.5 21.625 26.625 22.5 26.125C23.375 25.75 23.875 24.875 23.875 23.875V6.25C24.625 6.25 25.125 5.75 25.125 5C25.125 4.25 24.5 3.75 23.75 3.75ZM21.25 23.875L16.375 20.625C16 20.375 15.5 20.25 15 20.25C14.5 20.25 14 20.375 13.625 20.625L8.75 23.875V6.25H21.25V23.875Z" fill="black"/>
</svg>
