<svg width="30" height="30" viewBox="0 0 30 30" fill="none" xmlns="http://www.w3.org/2000/svg">
<path fill-rule="evenodd" clip-rule="evenodd" d="M15 2.5C11.5482 2.5 8.75 5.29822 8.75 8.75C8.75 12.2018 11.5482 15 15 15C18.4517 15 21.25 12.2018 21.25 8.75C21.25 5.29822 18.4517 2.5 15 2.5Z" fill="black"/>
<path fill-rule="evenodd" clip-rule="evenodd" d="M15 16.25C10.046 16.25 6.85963 18.0578 5.17299 20.8188C4.12619 22.5324 4.52685 24.3157 5.59706 25.5592C6.6237 26.7522 8.27785 27.5 10 27.5H20C21.7221 27.5 23.3763 26.7522 24.403 25.5592C25.4731 24.3157 25.8739 22.5324 24.827 20.8188C23.1404 18.0578 19.954 16.25 15 16.25Z" fill="black"/>
</svg>
