<svg width="30" height="30" viewBox="0 0 30 30" fill="none" xmlns="http://www.w3.org/2000/svg">
<path d="M2.16565 4.66876H7.19065L10.1766 17.7422H23.2922L26.3297 7.66407L7.81409 7.40157" stroke="black" stroke-width="2"/>
<path d="M24.2484 20.7891H10.1578C9.95467 20.7935 9.75273 20.7568 9.56416 20.6812C9.3756 20.6055 9.20432 20.4924 9.06065 20.3487C8.91697 20.205 8.80389 20.0338 8.72821 19.8452C8.65253 19.6566 8.61582 19.4547 8.6203 19.2516C8.6203 17.7422 10.1765 17.7422 10.1765 17.7422" stroke="black" stroke-width="2"/>
<path d="M11.6953 25.8469C12.6092 25.8469 13.35 25.1061 13.35 24.1922C13.35 23.2783 12.6092 22.5375 11.6953 22.5375C10.7815 22.5375 10.0406 23.2783 10.0406 24.1922C10.0406 25.1061 10.7815 25.8469 11.6953 25.8469Z" stroke="black" stroke-width="2"/>
<path d="M21.5813 25.8469C22.4951 25.8469 23.236 25.1061 23.236 24.1922C23.236 23.2783 22.4951 22.5375 21.5813 22.5375C20.6674 22.5375 19.9266 23.2783 19.9266 24.1922C19.9266 25.1061 20.6674 25.8469 21.5813 25.8469Z" stroke="black" stroke-width="2"/>
</svg>
